<svg width="23" height="20" viewBox="0 0 23 20" fill="#000" xmlns="http://www.w3.org/2000/svg">
<path class="svg-path" d="M15.142 11.088C15.571 11.088 15.932 11.298 16.244 11.724C16.554 12.146 16.712 12.668 16.712 13.284C16.712 13.903 16.556 14.425 16.244 14.847C15.932 15.269 15.566 15.481 15.142 15.481C14.691 15.481 14.303 15.271 13.991 14.847C13.684 14.425 13.526 13.903 13.526 13.284C13.526 12.665 13.679 12.145 13.991 11.724C14.303 11.297 14.693 11.088 15.142 11.088ZM20.661 5.373C21.863 6.676 22.47 8.257 22.47 10.111C22.47 11.314 22.328 12.397 22.055 13.36C21.777 14.318 21.426 15.103 21.007 15.703C20.58 16.308 20.064 16.839 19.442 17.288C18.82 17.749 18.247 18.078 17.73 18.29C17.213 18.502 16.618 18.666 15.945 18.78C15.28 18.897 14.777 18.96 14.428 18.978C14.092 18.993 13.726 19 13.331 19C13.243 19 12.946 19.01 12.452 19.024C11.97 19.044 11.556 19.053 11.234 19.053C10.912 19.053 10.498 19.043 10.016 19.024C9.526 19.009 9.226 19 9.137 19C8.742 19 8.373 18.995 8.039 18.978C7.689 18.961 7.187 18.898 6.525 18.78C5.849 18.668 5.257 18.507 4.738 18.29C4.221 18.08 3.649 17.749 3.03 17.288C2.406 16.834 1.889 16.305 1.462 15.703C1.043 15.103 0.69 14.318 0.414 13.36C0.142 12.397 0 11.314 0 10.111C0 8.257 0.605 6.676 1.81 5.373C1.677 5.308 1.67 4.659 1.789 3.421C1.896 2.182 2.159 1.041 2.586 0C4.089 0.16 5.938 1.008 8.153 2.539C8.901 2.344 9.925 2.244 11.231 2.244C12.601 2.244 13.625 2.344 14.31 2.539C15.319 1.858 16.285 1.3 17.206 0.876C18.142 0.457 18.815 0.209 19.239 0.145L19.873 0C20.302 1.041 20.565 2.185 20.673 3.421C20.797 4.658 20.79 5.308 20.658 5.373H20.661ZM11.288 17.924C13.991 17.924 16.029 17.6 17.413 16.951C18.793 16.3 19.495 14.961 19.495 12.943C19.495 11.773 19.054 10.793 18.173 10.011C17.719 9.587 17.188 9.33 16.578 9.23C15.983 9.132 15.064 9.132 13.823 9.23C12.587 9.33 11.741 9.375 11.286 9.375C10.667 9.375 9.995 9.342 9.161 9.277C8.327 9.215 7.674 9.175 7.207 9.155C6.729 9.14 6.221 9.2 5.669 9.327C5.112 9.46 4.661 9.684 4.296 10.008C3.456 10.758 3.03 11.733 3.03 12.94C3.03 14.959 3.714 16.297 5.08 16.946C6.445 17.599 8.477 17.921 11.181 17.921L11.288 17.924ZM7.379 11.088C7.803 11.088 8.168 11.298 8.477 11.724C8.787 12.146 8.944 12.668 8.944 13.284C8.944 13.903 8.789 14.425 8.477 14.847C8.168 15.269 7.8 15.481 7.379 15.481C6.924 15.481 6.538 15.271 6.226 14.847C5.917 14.425 5.759 13.903 5.759 13.284C5.759 12.665 5.914 12.145 6.226 11.724C6.538 11.297 6.925 11.088 7.379 11.088Z" fill="black" fill-opacity="1"/>
</svg>
